# xmcd CD database file
# Copyright (C) 1995-1998 Ti Kan
#
# Track frame offsets:
#	182
#	14137
#	29762
#	49300
#	65310
#	81950
#	95857
#	116677
#	138767
#	155600
#	169115
#	182175
#	198925
#	212960
#	228470
#	243962
#
# Disc length: 3505 seconds
#
# Revision: 2
# Processed by: cddbd v1.4PL0 Copyright (c) Steve Scherf et al.
# Submitted via: CDex 1.30Release
#
DISCID=eb0daf10
DTITLE=Engelbert Humperdinck - In The Still Of The Night
DYEAR=1993
DGENRE=Blues
TTITLE0=Peace Of Mind
TTITLE1=I Believe In Miracles
TTITLE2=What I Did For Love
TTITLE3=Goodby My Friend
TTITLE4=You Are There
TTITLE5=Look At Me
TTITLE6=Summer Of My Life
TTITLE7=From Me To You
TTITLE8=Put A Light In Your Window
TTITLE9=Without You
TTITLE10=My Foolish Heart
TTITLE11=You Belong To My Heart
TTITLE12=Red Sails In The Sunset
TTITLE13=As Time Goes By
TTITLE14=The Say It's Wonderful
TTITLE15=In The Still Of The Night
EXTD=YEAR: 1993 ID3G:   0
EXTT0=
EXTT1=
EXTT2=
EXTT3=
EXTT4=
EXTT5=
EXTT6=
EXTT7=
EXTT8=
EXTT9=
EXTT10=
EXTT11=
EXTT12=
EXTT13=
EXTT14=
EXTT15=
PLAYORDER=
